<svg xmlns="http://www.w3.org/2000/svg" width="996" height="1000" version="1.0" viewBox="0 0 747 750"><path d="M334.2 1.5c-87.8 10-164.4 46.6-225.7 108-52.3 52.2-88 118.3-102.4 189.3C3.5 311.4 0 334.5 0 338.7c0 1.1 18.5 1.3 97.5 1.3H195l.6-2.8c7.8-36.3 25.8-68.3 53.2-94.3 35.2-33.5 81.8-51.2 130.2-49.6 37.6 1.3 70.3 12.4 101.4 34.4 17.5 12.4 39.4 37 51.3 57.6 7.7 13.1 16.2 35.8 19.7 51.9l.6 2.8h195.2l-.7-6.8c-5-49.1-23.6-105-49.4-148.5-17.8-29.9-34.5-51.3-59.5-76.2C579.2 50.3 505.3 14.1 421 2.4c-16.2-2.2-70.1-2.8-86.8-.9z"/><path d="M360 249.6c-29.3 3.6-54.5 15.8-75.1 36.3-14.3 14.3-24.5 30.8-30.9 49.9-11 33.4-6.5 73.9 11.6 103.6 19.1 31.2 50.6 52.9 85.8 59.1 11.4 1.9 32.8 1.9 44.2 0 32.6-5.7 63.3-25.6 81.5-52.8 9.7-14.5 14.8-26 19-43.2 2.9-11.5 3.6-34.9 1.5-47.7-8.4-51.2-46.4-91.2-97.6-102.9-8.3-1.9-32.2-3.3-40-2.3z"/><path d="M.3 413.2c3 37.5 16.2 84.8 34.6 123.3 19.1 39.9 41.5 71.1 74.5 104 19.3 19.3 32.1 30 51.4 43.3 96.3 66.3 218.1 83.9 329.5 47.6 42-13.7 82.7-35.8 118.2-64 15-11.9 46-43.1 58.4-58.7 36.2-45.7 61.7-99.6 73.5-155.3 3-14.3 6.6-38.3 6.6-44.2V405H553l-.6 2.7c-6.7 29.6-14 47.2-28.3 68.4-18.4 27.4-42.9 48.4-73.3 62.9-80.8 38.4-177.8 11.7-227.9-62.9-14-20.7-22-40.1-28.3-68.4l-.6-2.7H-.3l.6 8.2z"/></svg>
